<?xml version="1.0" encoding="UTF-8" standalone="no"?>
<!DOCTYPE svg PUBLIC "-//W3C//DTD SVG 1.1//EN" "http://www.w3.org/Graphics/SVG/1.1/DTD/svg11.dtd">
<svg width="100%" height="100%" viewBox="0 0 128 128" version="1.1" xmlns="http://www.w3.org/2000/svg" xmlns:xlink="http://www.w3.org/1999/xlink" xml:space="preserve" xmlns:serif="http://www.serif.com/" style="fill-rule:evenodd;clip-rule:evenodd;stroke-linejoin:round;stroke-miterlimit:2;">
    <g transform="matrix(0.751095,0,0,0.762977,87.7202,125.472)">
        <path d="M32.114,-162.25C30.849,-161.9 29.738,-161.56 28.873,-161.277L28.87,-161.276C28.185,-161.05 27.502,-160.82 26.819,-160.586C24.188,-161.448 21.363,-162.18 18.343,-162.772L18.324,-162.775C17.925,-162.848 17.526,-162.917 17.127,-162.984C11.892,-163.921 6.167,-164.415 0.006,-164.43L0.006,-164.421C-10.585,-164.471 -21.204,-163.043 -31.545,-160.538C-38.12,-162.108 -44.725,-163.216 -51.219,-163.83C-51.514,-163.86 -51.803,-163.889 -52.092,-163.916L-52.101,-163.917C-63.641,-164.931 -77.868,-164.621 -90.088,-160.606C-91.028,-160.925 -91.972,-161.235 -92.919,-161.536L-92.928,-161.539C-99.079,-163.448 -104.214,-164.439 -107.929,-164.43C-111.081,-164.423 -113.384,-163.654 -114.788,-162.421C-116.467,-160.947 -117.252,-158.761 -116.483,-155.686C-115.894,-153.335 -114.223,-150.228 -111.208,-146.347C-112.238,-144.912 -113.117,-143.418 -113.851,-141.872C-114.817,-139.838 -115.532,-137.707 -116.008,-135.496C-117.522,-128.83 -116.769,-121.916 -114.653,-115.178C-113.892,-112.754 -112.953,-110.355 -111.886,-108.001C-111.546,-107.237 -111.19,-106.473 -110.817,-105.708C-118.538,-89.8 -119.001,-72.112 -110.815,-55.467C-111.82,-53.434 -112.727,-51.374 -113.511,-49.295C-114.267,-47.295 -114.909,-45.278 -115.417,-43.251C-118.229,-32.437 -116.825,-22.594 -111.21,-14.784C-113.056,-12.432 -114.747,-9.953 -115.91,-7.208L-115.928,-7.165C-115.975,-7.042 -116.02,-6.919 -116.062,-6.798C-116.226,-6.369 -116.358,-5.962 -116.461,-5.577C-117.204,-2.797 -116.667,-0.791 -115.438,0.637C-114.383,1.921 -112.723,2.78 -110.531,3.117C-108.08,3.494 -104.811,3.206 -101.303,2.528C-97.746,1.849 -93.811,0.747 -89.959,-0.551C-85.361,0.964 -80.602,1.955 -75.781,2.547L-75.749,2.551L-75.682,2.559L-75.658,2.562L-75.64,2.564C-69.333,3.357 -62.925,3.467 -56.546,3.091L-56.153,3.072L-56.144,3.071C-50.559,2.735 -44.997,2.047 -39.49,1.04L-39.459,1.035L-39.425,1.028C-36.804,0.549 -34.196,-0.003 -31.604,-0.624L-31.148,-0.513C-17.244,2.83 1.969,4.886 18.672,1.596C21.5,1.039 24.257,0.328 26.907,-0.553C32.808,1.42 39.324,3.172 44.108,3.3C48.045,3.405 50.982,2.321 52.426,0.312C53.163,-0.713 53.599,-2.005 53.56,-3.633L53.558,-3.708L53.552,-3.782C53.395,-5.649 52.53,-7.928 50.987,-10.471C50.162,-11.831 49.139,-13.286 47.947,-14.816C53.786,-23.14 54.632,-32.423 52.589,-41.672C51.563,-46.311 49.796,-50.941 47.586,-55.414C50.815,-62.019 52.724,-68.814 53.342,-75.63C54.062,-83.285 53.165,-91.164 50.376,-99.056C49.594,-101.295 48.669,-103.514 47.602,-105.706L47.72,-105.944L47.747,-106.001C54.277,-119.356 55.187,-131.382 50.992,-140.979C50.177,-142.842 49.169,-144.621 47.966,-146.303C49.544,-148.327 50.772,-150.163 51.661,-151.798L51.711,-151.884L51.726,-151.911C51.805,-152.06 51.882,-152.207 51.955,-152.353L51.96,-152.362L52.013,-152.468L52.067,-152.576L52.072,-152.585C52.364,-153.172 52.609,-153.731 52.807,-154.261C53.109,-155.071 53.311,-155.833 53.423,-156.546C53.65,-157.899 53.552,-159.017 53.255,-159.922C52.623,-161.852 51.124,-163.179 48.935,-163.862C48.217,-164.094 47.406,-164.26 46.498,-164.351C43.257,-164.674 38.451,-164.034 32.114,-162.25ZM44.515,-10.858C41.523,-7.917 38.042,-5.51 34.211,-3.572C37.836,-2.573 41.373,-1.859 44.248,-1.782C45.501,-1.748 46.599,-1.828 47.457,-2.144C48.04,-2.36 48.391,-2.77 48.398,-3.447C48.269,-4.697 47.579,-6.175 46.553,-7.865C45.977,-8.816 45.293,-9.816 44.515,-10.858ZM-63.192,-11.944C-68.389,-9.368 -73.661,-6.949 -79.017,-4.728C-79.53,-4.51 -80.047,-4.294 -80.565,-4.079C-80.871,-3.95 -81.254,-3.792 -81.702,-3.611C-79.494,-3.132 -77.265,-2.756 -75.021,-2.472C-68.86,-1.726 -62.588,-1.675 -56.442,-2.003C-55.803,-2.042 -55.164,-2.085 -54.525,-2.135C-50.437,-2.455 -46.367,-2.974 -42.354,-3.632C-49.366,-5.862 -56.395,-8.63 -63.192,-11.944ZM0.036,-11.924C-5.163,-9.379 -10.529,-7.155 -16.003,-5.239L-16.554,-5.041L-16.562,-5.038C-17.983,-4.543 -19.412,-4.068 -20.845,-3.615C-8.954,-1.636 5.095,-0.914 17.659,-3.389L18.604,-3.582C16.08,-4.574 14.096,-5.417 13.03,-5.886C8.649,-7.791 4.317,-9.808 0.036,-11.924ZM-107.8,-10.801C-108.754,-9.526 -109.523,-8.37 -110.12,-7.325C-110.471,-6.701 -110.793,-6.062 -111.078,-5.403L-111.149,-5.234L-111.294,-4.841L-111.365,-4.637C-111.512,-4.187 -111.599,-3.779 -111.622,-3.406C-111.633,-3.227 -111.632,-3.063 -111.602,-2.92C-111.572,-2.812 -111.527,-2.712 -111.466,-2.618C-111.447,-2.594 -111.425,-2.572 -111.402,-2.55C-110.982,-2.171 -110.323,-2.031 -109.543,-1.926C-108.334,-1.765 -106.886,-1.809 -105.28,-1.99C-104.279,-2.102 -103.222,-2.268 -102.126,-2.479C-100.609,-2.779 -99.04,-3.158 -97.478,-3.584L-97.505,-3.597C-97.652,-3.672 -97.799,-3.748 -97.946,-3.823L-98.372,-4.046C-102.071,-5.97 -105.214,-8.238 -107.8,-10.801ZM-31.599,-29.751C-40.008,-24.419 -48.636,-19.43 -57.471,-14.855C-48.997,-11.012 -40.221,-8.028 -31.661,-5.878C-27.11,-7.006 -22.594,-8.337 -18.15,-9.878C-13.989,-11.363 -9.846,-13.024 -5.775,-14.873C-11.423,-17.811 -16.985,-20.918 -22.462,-24.165L-22.462,-24.165L-23.713,-24.91L-23.803,-24.964L-23.81,-24.968C-26.424,-26.531 -29.021,-28.125 -31.599,-29.751ZM26.803,-29.355C22.122,-25.303 17.065,-21.662 11.761,-18.404C9.766,-17.165 7.736,-15.98 5.678,-14.85C8.799,-13.354 11.949,-11.913 15.126,-10.532L15.131,-10.529C16.928,-9.739 21.514,-7.776 26.824,-5.91C32.364,-7.939 37.328,-10.835 41.269,-14.857C40.27,-16.007 39.192,-17.19 38.05,-18.399C34.729,-21.914 30.874,-25.63 26.803,-29.355ZM-89.991,-29.341C-90.958,-28.458 -91.922,-27.569 -92.88,-26.675C-93.604,-25.995 -94.327,-25.311 -95.047,-24.621C-97.748,-22.017 -100.389,-19.347 -102.946,-16.593L-103.519,-15.96L-103.596,-15.875L-104.13,-15.273L-104.423,-14.94L-104.498,-14.854C-103.836,-14.157 -103.127,-13.483 -102.372,-12.836C-100.801,-11.503 -99.091,-10.317 -97.298,-9.275C-96.451,-8.788 -95.566,-8.324 -94.644,-7.884C-93.111,-7.16 -91.551,-6.513 -89.968,-5.938L-89.407,-6.135L-89.073,-6.255C-88.334,-6.523 -87.603,-6.798 -86.883,-7.076L-86.879,-7.077C-84.922,-7.825 -82.977,-8.601 -81.04,-9.404C-76.945,-11.134 -72.892,-12.96 -68.877,-14.875C-76.425,-18.987 -83.584,-23.806 -89.991,-29.341ZM-63.211,-52.156C-65.068,-50.642 -66.923,-49.125 -68.774,-47.599C-72.521,-44.482 -76.273,-41.358 -79.986,-38.185C-82.068,-36.397 -84.136,-34.593 -86.184,-32.768C-79.281,-26.862 -71.47,-21.826 -63.246,-17.633C-62.09,-18.214 -60.938,-18.802 -59.79,-19.397C-53.012,-22.94 -46.362,-26.732 -39.822,-30.677C-38.666,-31.38 -37.512,-32.09 -36.364,-32.806C-41.528,-36.171 -46.608,-39.665 -51.589,-43.295L-51.603,-43.305L-51.629,-43.325L-52.321,-43.829L-52.62,-44.049L-52.856,-44.221L-53.604,-44.774L-53.692,-44.839L-53.717,-44.857C-56.926,-47.231 -60.093,-49.662 -63.211,-52.156ZM-0.672,-51.629L-0.821,-51.512L-0.938,-51.418L-1.369,-51.078L-1.699,-50.817L-1.838,-50.708C-9.894,-44.362 -18.261,-38.409 -26.854,-32.809C-24.971,-31.636 -23.078,-30.48 -21.177,-29.341L-20.603,-28.998C-13.869,-24.983 -7.006,-21.181 -0.009,-17.648C2.672,-19.013 5.309,-20.465 7.888,-22.011C13.181,-25.221 18.223,-28.826 22.931,-32.843C14.997,-39.895 6.627,-46.768 -0.023,-52.147L-0.672,-51.629ZM44.512,-49.816C41.537,-44.906 37.895,-40.238 33.689,-35.891L33.685,-35.887C33.339,-35.532 32.991,-35.181 32.641,-34.833L32.018,-34.202C31.737,-33.925 31.456,-33.647 31.175,-33.37L30.598,-32.814C34.665,-29.088 38.512,-25.374 41.83,-21.861C42.768,-20.868 43.665,-19.891 44.513,-18.932C49.922,-27.595 49.148,-37.438 45.681,-46.879C45.319,-47.862 44.929,-48.842 44.512,-49.816ZM-107.683,-49.822C-108.453,-48.014 -109.135,-46.201 -109.722,-44.382C-110.107,-43.176 -110.432,-41.983 -110.698,-40.805C-111.226,-38.428 -111.541,-36.043 -111.595,-33.668C-111.7,-28.262 -110.407,-23.289 -107.703,-18.974C-107.436,-19.276 -107.161,-19.582 -106.88,-19.892L-106.871,-19.902L-106.775,-20.004C-104.145,-22.889 -101.373,-25.657 -98.55,-28.358C-96.988,-29.862 -95.406,-31.345 -93.808,-32.811C-99.153,-37.926 -103.859,-43.595 -107.683,-49.822ZM-31.609,-77.318C-40.814,-70.07 -50.02,-62.817 -59.138,-55.456C-56.323,-53.221 -53.469,-51.035 -50.581,-48.895L-50.522,-48.852L-49.505,-48.103L-48.529,-47.389L-48.494,-47.364C-43.972,-44.074 -39.366,-40.896 -34.697,-37.819C-33.67,-37.147 -32.64,-36.478 -31.608,-35.816L-31.005,-36.203L-29.977,-36.87C-23.174,-41.322 -16.519,-45.997 -10.016,-50.857C-8.364,-52.106 -6.723,-53.371 -5.095,-54.652L-4.564,-55.071L-4.1,-55.438C-6.507,-57.376 -8.534,-59.005 -10.029,-60.234C-17.194,-65.963 -24.4,-71.642 -31.609,-77.318ZM-89.979,-76.724C-94.101,-71.954 -98.428,-66.435 -102.124,-60.497C-103.149,-58.824 -104.111,-57.14 -105.003,-55.445C-101.091,-48.305 -95.972,-41.906 -90.02,-36.231C-87.95,-38.073 -85.858,-39.892 -83.752,-41.695C-79.929,-44.987 -76.059,-48.225 -72.166,-51.433L-71.617,-51.89L-71.612,-51.894C-70.165,-53.084 -68.716,-54.27 -67.262,-55.453L-67.319,-55.501C-70.578,-58.203 -73.777,-60.975 -76.908,-63.822L-76.911,-63.824L-77.502,-64.368C-81.45,-67.982 -85.282,-71.724 -88.946,-75.621L-89.186,-75.874L-89.979,-76.724ZM26.766,-76.728C24.317,-74.085 21.787,-71.513 19.195,-69.003L19.04,-68.851L18.659,-68.484L18.534,-68.363L18.491,-68.322C13.843,-63.843 9.005,-59.559 4.03,-55.442C10.693,-50.04 18.947,-43.238 26.764,-36.275C27.663,-37.118 28.548,-37.978 29.415,-38.856C33.199,-42.769 36.626,-47.033 39.601,-51.67C39.72,-51.858 39.838,-52.046 39.956,-52.238C40.603,-53.299 41.216,-54.373 41.794,-55.456C37.814,-62.913 32.633,-69.82 27.905,-75.406C27.528,-75.849 27.148,-76.29 26.766,-76.728ZM-0.01,-102.402C-9.098,-95.042 -18.282,-87.801 -27.474,-80.571C-20.549,-75.118 -13.63,-69.661 -6.747,-64.158L-6.733,-64.147C-5.079,-62.787 -2.776,-60.938 -0.032,-58.726C1.715,-60.163 3.445,-61.619 5.157,-63.096C8.386,-65.902 11.567,-68.779 14.663,-71.745C16.757,-73.757 18.812,-75.809 20.824,-77.905C21.665,-78.786 22.499,-79.674 23.325,-80.572C16.108,-88.413 8.228,-95.632 -0.01,-102.402ZM-63.21,-102.405C-71.45,-95.635 -79.317,-88.407 -86.551,-80.571L-85.796,-79.753L-85.075,-78.985C-81.408,-75.102 -77.57,-71.377 -73.64,-67.773C-70.479,-64.889 -67.241,-62.088 -63.954,-59.356L-63.543,-59.017L-63.211,-58.744C-54.606,-65.709 -45.915,-72.568 -37.217,-79.411L-35.741,-80.573C-44.931,-87.81 -54.113,-95.055 -63.21,-102.405ZM-107.725,-99.963C-112.748,-87.514 -113.017,-74.066 -107.729,-61.151C-105.685,-64.611 -103.418,-67.95 -101.07,-71.11C-98.782,-74.207 -96.317,-77.254 -93.718,-80.241L-93.686,-80.277L-93.438,-80.562C-95.39,-82.793 -97.281,-85.076 -99.098,-87.416L-99.229,-87.582L-99.444,-87.861L-99.502,-87.935L-99.538,-87.982L-100.128,-88.748L-100.133,-88.754C-100.45,-89.175 -100.768,-89.601 -101.086,-90.034L-101.096,-90.047L-101.106,-90.062L-101.193,-90.179L-101.383,-90.439C-102.592,-92.084 -103.764,-93.759 -104.895,-95.464C-105.897,-96.961 -106.841,-98.462 -107.725,-99.963ZM44.505,-99.976C43.435,-98.157 42.263,-96.31 40.989,-94.434L40.846,-94.226C38.19,-90.302 35.294,-86.541 32.234,-82.915L31.907,-82.525C31.583,-82.146 31.259,-81.766 30.934,-81.386L30.222,-80.567C30.774,-79.939 31.323,-79.305 31.867,-78.666L31.869,-78.663C36.093,-73.673 40.637,-67.671 44.468,-61.165C46.224,-65.498 47.427,-69.977 48.001,-74.547C49.036,-83.097 47.846,-91.706 44.505,-99.976ZM-31.608,-125.338C-34.319,-123.593 -37.008,-121.813 -39.671,-119.997L-39.932,-119.819L-40.86,-119.183L-42.042,-118.366C-42.484,-118.058 -42.926,-117.749 -43.369,-117.441L-44.33,-116.764C-49.03,-113.432 -54.044,-109.719 -59.137,-105.69C-50.019,-98.334 -40.818,-91.079 -31.609,-83.828L-26.224,-88.072C-18.821,-93.915 -11.42,-99.765 -4.08,-105.69C-5.254,-106.623 -6.434,-107.546 -7.619,-108.462C-15.371,-114.422 -23.382,-120.047 -31.608,-125.338ZM26.761,-124.892C25.747,-123.992 24.728,-123.097 23.705,-122.208C22.794,-121.41 21.88,-120.617 20.965,-119.826L20.96,-119.822C19.936,-118.945 18.909,-118.071 17.878,-117.198C16.731,-116.221 15.583,-115.248 14.436,-114.277L14.431,-114.273C10.989,-111.388 7.525,-108.53 4.042,-105.692C12.045,-99.071 19.707,-92.026 26.761,-84.409L27.09,-84.788C27.315,-85.05 27.54,-85.312 27.765,-85.574L28.247,-86.144C31.22,-89.679 34.031,-93.349 36.638,-97.174C38.156,-99.424 39.591,-101.73 40.925,-104.098L41.138,-104.48C41.364,-104.882 41.584,-105.282 41.799,-105.682C40.392,-108.293 38.792,-110.829 37.019,-113.285C33.981,-117.426 30.536,-121.295 26.761,-124.892ZM-90.008,-124.891C-93.888,-121.201 -97.447,-117.18 -100.597,-112.803C-102.254,-110.499 -103.733,-108.133 -105.025,-105.72C-102.672,-101.312 -99.924,-97.143 -97.178,-93.389L-96.918,-93.034L-96.857,-92.951L-96.117,-91.962L-95.464,-91.107L-95.161,-90.714L-95.075,-90.603C-93.43,-88.495 -91.73,-86.432 -89.979,-84.412C-82.913,-92.023 -75.263,-99.076 -67.259,-105.698C-74.904,-111.996 -82.599,-118.289 -90.008,-124.891ZM0.02,-143.504C-2.686,-142.128 -5.374,-140.715 -8.045,-139.282C-12.788,-136.697 -17.471,-134.004 -22.105,-131.251L-22.58,-130.965L-23.509,-130.403L-23.66,-130.311L-24.947,-129.525C-25.401,-129.245 -25.854,-128.965 -26.308,-128.686L-26.855,-128.345C-19.182,-123.34 -11.697,-118.047 -4.435,-112.464L-4.433,-112.462C-2.951,-111.317 -1.477,-110.159 -0.014,-108.988C4.902,-112.997 9.785,-117.042 14.62,-121.144C16.418,-122.674 18.212,-124.211 19.993,-125.761L21.111,-126.739C21.503,-127.084 21.895,-127.429 22.287,-127.774L22.933,-128.348L22.757,-128.499C16.017,-134.214 8.301,-139.248 0.02,-143.504ZM-63.21,-143.494C-71.407,-139.305 -79.219,-134.295 -86.187,-128.337C-78.702,-121.685 -70.922,-115.347 -63.208,-108.989C-60.723,-110.975 -58.208,-112.922 -55.669,-114.834L-55.667,-114.836C-52.91,-116.904 -50.122,-118.931 -47.306,-120.918L-46.661,-121.375L-46.659,-121.377C-45.714,-122.039 -44.766,-122.698 -43.815,-123.351L-43.671,-123.451L-42.911,-123.97L-42.657,-124.145L-42.607,-124.179C-40.54,-125.589 -38.458,-126.978 -36.362,-128.345C-41.677,-131.651 -47.075,-134.818 -52.546,-137.85C-56.07,-139.777 -59.622,-141.668 -63.21,-143.494ZM44.517,-142.203C44.373,-142.042 44.228,-141.881 44.08,-141.719L44.078,-141.717L43.842,-141.461L43.824,-141.441L43.608,-141.207L43.222,-140.788L43.177,-140.739C42.039,-139.512 40.879,-138.307 39.723,-137.109L39.712,-137.099C38.89,-136.266 38.06,-135.441 37.224,-134.623C35.047,-132.481 32.825,-130.385 30.571,-128.323C33.995,-125.06 37.123,-121.613 39.896,-117.997C40.622,-117.06 41.326,-116.11 42.01,-115.147L42.012,-115.143C42.901,-113.88 43.74,-112.604 44.526,-111.318C48.671,-121.021 49.503,-129.814 46.951,-137.174C46.333,-138.946 45.52,-140.624 44.517,-142.203ZM-107.753,-142.23C-109.862,-138.811 -111.021,-135.231 -111.447,-131.583C-111.952,-127.014 -111.357,-122.116 -109.831,-117.047L-109.724,-116.693L-109.714,-116.663C-109.151,-114.872 -108.484,-113.096 -107.733,-111.343C-106.824,-112.829 -105.85,-114.296 -104.811,-115.741L-104.811,-115.741C-101.533,-120.295 -97.836,-124.485 -93.812,-128.334C-98.643,-132.777 -103.322,-137.379 -107.753,-142.23ZM-31.635,-155.279C-38.251,-153.611 -44.742,-151.492 -51.023,-149.04C-53.184,-148.167 -55.335,-147.244 -57.468,-146.269C-54.971,-144.966 -52.492,-143.635 -50.026,-142.286L-50.02,-142.283C-43.784,-138.828 -37.641,-135.198 -31.61,-131.394C-29.884,-132.483 -28.149,-133.557 -26.406,-134.616L-26.285,-134.69L-26.171,-134.759L-25.743,-135.019L-25.316,-135.276L-24.897,-135.53L-24.769,-135.605C-20.405,-138.229 -15.985,-140.763 -11.516,-143.207L-11.509,-143.211L-10.342,-143.838C-8.813,-144.67 -7.279,-145.491 -5.738,-146.298C-7.8,-147.243 -9.892,-148.141 -12.007,-148.991C-12.978,-149.381 -13.955,-149.762 -14.933,-150.129C-20.432,-152.184 -26.034,-153.902 -31.635,-155.279ZM26.839,-155.201C21.736,-153.395 16.718,-151.364 11.776,-149.158L11.703,-149.126L11.198,-148.898C9.338,-148.055 7.489,-147.187 5.649,-146.297C13.236,-142.148 20.372,-137.304 26.754,-131.784C29.101,-133.925 31.415,-136.1 33.68,-138.322C35.922,-140.531 38.113,-142.791 40.238,-145.115C40.605,-145.518 40.96,-145.915 41.302,-146.305C40.313,-147.341 39.229,-148.318 38.053,-149.234C34.979,-151.612 31.235,-153.614 26.839,-155.201ZM-89.998,-155.188C-93.201,-154.023 -96.021,-152.671 -98.476,-151.151C-100.671,-149.758 -102.696,-148.146 -104.494,-146.283L-103.982,-145.703C-99.546,-140.841 -94.855,-136.234 -90.011,-131.79C-83.546,-137.377 -76.378,-142.182 -68.839,-146.286C-75.738,-149.616 -82.777,-152.652 -89.998,-155.188ZM-62.476,-159.329C-69.181,-159.354 -75.652,-158.769 -81.703,-157.524C-75.417,-155.037 -69.258,-152.217 -63.199,-149.197C-59.83,-150.844 -56.406,-152.36 -52.955,-153.754L-52.941,-153.76C-49.472,-155.114 -45.941,-156.369 -42.365,-157.506C-45.8,-158.087 -49.213,-158.537 -52.577,-158.855C-55.702,-159.13 -59.037,-159.306 -62.476,-159.329ZM18.522,-157.543C18.136,-157.626 17.745,-157.706 17.351,-157.783C4.736,-160.062 -8.185,-159.727 -20.84,-157.567C-17.201,-156.413 -13.598,-155.121 -10.055,-153.697C-7.188,-152.544 -4.36,-151.305 -1.581,-149.981L-1.371,-149.881C-1.109,-149.756 -0.847,-149.63 -0.586,-149.505L-0.01,-149.224C3.037,-150.74 6.111,-152.2 9.214,-153.592L9.375,-153.665L9.624,-153.776L9.751,-153.834L9.808,-153.859C12.685,-155.151 15.589,-156.385 18.522,-157.543ZM48.07,-158.711C47.87,-158.86 47.606,-158.948 47.32,-159.034C46.567,-159.259 45.666,-159.335 44.684,-159.334C42.94,-159.333 40.983,-159.08 39.054,-158.712C37.594,-158.424 35.994,-158.041 34.252,-157.562C38.334,-155.526 41.77,-153.089 44.558,-150.309C45.51,-151.6 46.395,-152.938 47.188,-154.338C47.405,-154.745 47.593,-155.131 47.752,-155.496C47.828,-155.672 47.897,-155.846 47.961,-156.016L48.086,-156.358C48.182,-156.639 48.256,-156.905 48.31,-157.159C48.372,-157.457 48.42,-157.72 48.421,-157.949C48.406,-158.147 48.352,-158.328 48.25,-158.492C48.2,-158.574 48.14,-158.647 48.07,-158.711ZM-97.478,-157.571C-101.667,-158.725 -105.208,-159.354 -107.916,-159.347C-109.464,-159.344 -110.662,-159.233 -111.352,-158.627C-111.583,-158.424 -111.622,-158.117 -111.605,-157.75C-111.577,-157.161 -111.386,-156.486 -111.068,-155.712C-110.443,-154.192 -109.364,-152.405 -107.801,-150.323C-106.029,-152.074 -103.976,-153.705 -101.623,-155.198C-100.294,-156.06 -98.91,-156.85 -97.478,-157.571Z" style="fill:rgb(168,180,191);"/>
    </g>
</svg>
