<?xml version="1.0" encoding="UTF-8" standalone="no"?>
<!DOCTYPE svg PUBLIC "-//W3C//DTD SVG 1.1//EN" "http://www.w3.org/Graphics/SVG/1.1/DTD/svg11.dtd">
<svg width="100%" height="100%" viewBox="0 0 1000 1000" version="1.1" xmlns="http://www.w3.org/2000/svg" xmlns:xlink="http://www.w3.org/1999/xlink" xml:space="preserve" xmlns:serif="http://www.serif.com/" style="fill-rule:evenodd;clip-rule:evenodd;stroke-linejoin:round;stroke-miterlimit:2;">
    <g id="path18" transform="matrix(15.4342,0,0,15.4342,-2946.07,0.0234536)">
        <path d="M246.084,55.204L236.484,55.204L236.484,40.17C236.484,36.585 236.42,31.97 231.491,31.97C226.491,31.97 225.726,35.876 225.726,39.909L225.726,55.203L216.126,55.203L216.126,24.287L225.342,24.287L225.342,28.512L225.471,28.512C227.348,25.303 230.85,23.38 234.564,23.518C244.294,23.518 246.088,29.918 246.088,38.244L246.084,55.204ZM205.294,20.061L205.293,20.061C202.237,20.061 199.722,17.546 199.722,14.49C199.722,11.434 202.237,8.919 205.293,8.919C208.349,8.919 210.863,11.433 210.864,14.489L210.864,14.49C210.864,17.546 208.35,20.06 205.294,20.061M210.094,55.204L200.484,55.204L200.484,24.287L210.094,24.287L210.094,55.204ZM250.87,0.004L195.66,0.004C193.068,-0.025 190.911,2.082 190.879,4.674L190.879,60.113C190.91,62.706 193.067,64.816 195.66,64.788L250.87,64.788C253.468,64.821 255.634,62.711 255.67,60.113L255.67,4.67C255.633,2.073 253.467,-0.034 250.87,0" style="fill:rgb(230,230,230);fill-rule:nonzero;"/>
    </g>
</svg>
