<?xml version="1.0" encoding="UTF-8" standalone="no"?>
<!DOCTYPE svg PUBLIC "-//W3C//DTD SVG 1.1//EN" "http://www.w3.org/Graphics/SVG/1.1/DTD/svg11.dtd">
<svg width="100%" height="100%" viewBox="0 0 900 900" version="1.1" xmlns="http://www.w3.org/2000/svg" xmlns:xlink="http://www.w3.org/1999/xlink" xml:space="preserve" xmlns:serif="http://www.serif.com/" style="fill-rule:evenodd;clip-rule:evenodd;stroke-linejoin:round;stroke-miterlimit:2;">
    <g transform="matrix(2.64596,0,0,2.64596,-793.787,-1931.36)">
        <path d="M470.071,766.621C495.579,738.211 521.005,724.32 539.642,732.04C558.279,739.759 566.436,767.561 564.384,805.687C602.509,803.635 630.311,811.792 638.031,830.429C645.751,849.066 631.859,874.492 603.449,900C631.859,925.508 645.751,950.934 638.031,969.571C630.311,988.208 602.509,996.365 564.384,994.313C566.436,1032.44 558.279,1060.24 539.642,1067.96C521.005,1075.68 495.579,1061.79 470.071,1033.38C444.563,1061.79 419.136,1075.68 400.499,1067.96C381.862,1060.24 373.706,1032.44 375.758,994.313C337.632,996.365 309.83,988.208 302.11,969.571C294.391,950.934 308.282,925.508 336.692,900C308.282,874.492 294.391,849.066 302.11,830.429C309.83,811.792 337.632,803.635 375.758,805.687C373.706,767.561 381.862,739.759 400.499,732.04C419.136,724.32 444.563,738.211 470.071,766.621ZM505.187,984.778C495.099,1001.69 484.477,1016.64 473.811,1029.11C496.464,1053.03 518.762,1064.41 535.329,1057.55C551.895,1050.68 559.619,1026.88 558.72,993.939C542.361,992.664 524.276,989.603 505.187,984.778ZM434.955,984.778C415.865,989.602 397.782,992.662 381.421,993.939C380.522,1026.88 388.246,1050.68 404.813,1057.55C421.379,1064.41 443.677,1053.03 466.331,1029.11C455.665,1016.64 445.041,1001.69 434.955,984.778ZM498.233,987.21C489.363,990.077 479.896,991.627 470.071,991.627C460.245,991.627 450.778,990.077 441.909,987.21C451.045,1001.7 460.566,1014.45 470.071,1025.05C479.578,1014.45 489.097,1001.7 498.233,987.21ZM599.18,903.74C586.711,914.406 571.759,925.03 554.849,935.116C559.673,954.206 562.733,972.288 564.01,988.65C596.945,989.549 620.755,981.825 627.617,965.258C634.48,948.691 623.105,926.393 599.18,903.74ZM340.961,903.74C317.036,926.393 305.662,948.691 312.524,965.258C319.386,981.825 343.196,989.549 376.132,988.65C377.407,972.291 380.468,954.206 385.293,935.116C368.383,925.029 353.433,914.407 340.961,903.74ZM551.647,941.737C542.879,958.825 528.899,972.806 511.808,981.576C528.518,985.362 544.274,987.65 558.494,988.423C557.721,974.201 555.433,958.447 551.647,941.737ZM388.494,941.737C384.709,958.448 382.421,974.204 381.647,988.423C395.87,987.65 411.624,985.362 428.334,981.576C411.245,972.808 397.265,958.828 388.494,941.737ZM513.367,977.335C527.459,969.423 539.174,957.77 547.163,943.724L547.319,943.345L548.028,941.608L548.528,939.857L548.918,938.857L549.084,938.579L549.793,936.953L550.46,935.16L551.613,932.256L552.044,931.047L552.503,928.879L552.475,928.407L552.378,927.406L552.169,927.448L551.641,928.31L551.155,928.796L550.321,928.921L549.265,929.532L548.139,931.103L546.597,932.478L545.624,933.979L545.763,933.201L545.332,933.034L543.859,933.979L542.692,934.785L542.025,936.244L541.928,935.16L540.219,936.633L539.899,936.592L540.566,934.966L540.469,934.201L539.927,934.507L539.135,933.006L538.801,932.59L538.468,932.965L538.245,932.631L537.008,932.59L536.203,932.965L535.827,933.131L534.632,933.757L533.771,934.535L533.687,934.841L532.325,935.619L531.117,935.383L530.686,935.661L530.547,935.063L529.699,934.771L528.865,934.855L528.351,934.882L527.754,935.313L527.365,934.452L526.35,934.424L525.377,934.952L524.849,934.618L525.794,933.604L524.349,934.521L522.862,935.508L522.904,935.841L522.292,936.633L521.306,937.022L520.472,936.87L519.138,937.731L517.971,938.329L517.846,937.94L516.859,937.662L515.942,938.092L515.303,937.425L514.914,938.051L515.205,938.565L513.649,939.871L513.885,940.802L514.372,941.052L514.219,942.108L513.649,942.456L512.982,941.692L513.454,940.677L513.343,940.01L512.801,939.621L513.566,939.107L513.552,938.787L513.732,938.231L513.316,938.065L512.829,938.19L512.287,939.107L511.815,939.635L510.856,940.747L509.772,941.094L509.703,941.414L508.827,941.789L508.132,942.706L508.035,943.887L508.091,944.318L507.535,944.665L506.59,945.958L505.853,946.194L505.256,946.041L504.742,945.819L504.075,945.833L503.255,946.055L503.296,945.916L502.49,946.11L502.046,946.652L501.198,947.194L500.614,947.722L499.892,948.028L499.447,947.847L499.322,947.986L498.725,948.112L498.725,947.834L498.141,947.528L497.377,947.181L496.737,946.819L496.265,946.222L496.015,946.069L495.904,945.735L496.154,945.318L496.015,944.999L496.07,944.401L496.279,944.207L496.154,943.623L496.029,943.303L496.001,942.706L496.07,942.122L496.348,941.566L496.126,941.122L496.154,940.788L496.265,940.622L495.82,940.357L495.264,940.302L494.792,940.107L494.306,939.968L494.069,940.01L493.375,939.982L493.097,940.177L492.721,940.316L492.36,940.302L491.874,940.344L491.721,940.538L491.276,940.802L490.595,940.997L489.887,941.038L489.664,941.15L489.511,941.08L489.095,941.191L488.789,941.497L488.636,941.483L488.177,941.4L488.066,941.622L487.552,941.483L487.788,940.941L488.052,940.844L488.302,940.413L488.372,939.677L488.261,939.565L488.358,939.037L488.191,938.843L488.358,938.19L488.33,937.801L488.052,937.856L488.011,937.648L488.316,937.564L488.733,937.842L488.956,936.661L489.081,936.008L488.775,935.814L488.997,934.869L489.636,933.854L489.581,933.145L489.192,932.923L488.344,933.243L487.066,933.465L485.579,934.104L484.634,934.674L484.439,935.132L484.481,936.355L484.231,937.259L483.355,937.995L482.452,938.398L481.354,938.829L480.229,939.149L478.964,939.718L478.283,939.204L476.657,939.023L476.004,938.398L475.587,937.62L474.504,936.647L474.114,935.549L473.6,934.882L473.281,934.104L473.364,933.382L473.308,931.394L473.475,930.297L473.92,928.935L473.6,928.448L473.475,927.74L473.392,926.697L473.656,925.975L474.365,925.183L475.685,924.363L476.824,923.085L477.936,922.57L478.784,922.334L479.826,922.543L480.993,922.154L482.119,922.779L483.119,922.64L483.592,922.265L484.12,922.376L484.356,922.14L484.022,921.889L483.939,921.278L483.619,920.889L484.147,920.569L485.162,920.25L486.371,920.166L487.844,919.638L488.733,919.805L489.525,920.347L489.775,920.361L490.957,919.333L491.526,919.43L492.819,920.389L493.361,921.097L493.305,922.167L493.625,922.682L494.486,923.627L495.459,924.683L496.043,924.863L496.404,925.433L497.099,925.405L497.46,925.086L497.599,924.099L497.516,923.515L497.335,922.515L496.321,921.014L496.168,920.375L495.334,919.513L494.611,918.374L494.139,917.401L494.083,916.275L494.458,915.205L494.986,914.274L496.084,912.843L496.126,912.287L496.585,911.523L497.168,911.217L497.696,910.05L498.794,909.161L499.183,907.771L498.544,906.34L498.266,905.867L497.891,905.895L497.39,904.491L496.487,904.297L497.279,904.255L496.724,903.394L496.724,902.671L497.265,903.852L498.03,904.214L498.016,905.353L498.141,905.381L498.377,903.936L498.544,903.213L498.308,902.671L497.96,902.504L497.46,901.796L497.946,902.018L498.21,902.004L498.433,902.352L498.822,900.878L498.655,899.725L498.322,899.781L498.488,899.239L498.53,899.433L499.197,899.141L500.503,898.058L500.086,897.919L498.641,898.863L499.364,898.058L499.934,897.71L500.35,897.446L501.017,896.835L501.518,896.64L502.101,896.07L502.004,895.612L501.559,895.431L501.893,895.918L501.462,896.084L500.795,895.459L500.476,894.681L500.503,894.389L500.656,893.166L501.476,892.235L502.226,891.234L502.88,890.012L502.49,889.637L503.421,888.9L504.825,888.038L503.866,890.095L504.505,891.276L505.256,890.984L505.756,889.386L506.34,888.289L507.771,886.246L508.271,884.662L507.438,884.537L506.784,883.592L506.882,885.662L505.589,886.76L504.075,886.732L503.213,885.843L502.115,884.495L502.379,883.091L501.268,882.841L500.086,883.689L498.891,885.829L498.349,888.427L497.668,889.039L498.099,887.205L498.461,884.675L499.225,883.467L499.378,882.077L500.17,881.507L501.393,880.812L503.255,880.048L504.408,878.978L504.603,877.241L505.45,875.907L505.617,875.073L505.756,874.212L504.617,872.822L503.977,872.558L503.338,872.78L502.268,871.891L501.532,871.794L500.239,872.211L499.1,871.877L497.696,871.738L497.39,870.738L495.57,869.64L493.583,868.487L492.291,867.611L492.277,868.459L492.61,870.279L492.082,871.557L491.109,871.016L490.345,871.127L489.122,869.501L488.483,868.361L487.26,868.806L486.76,868.375L485.523,867.931L484.675,867.722L484.314,868.306L483.564,868.445L482.244,868.5L481.924,868.987L483.119,871.141L484.009,872.322L483.772,874.142L485.148,874.906L486.204,875.935L486.677,876.88L486.663,878.061L486.149,879.437L485.065,880.59L485.968,881.174L487.302,883.355L487.385,885.065L486.843,885.787L484.995,884.787L483.772,883.3L483.008,881.868L482.73,880.52L481.743,880.646L480.284,880.937L479.187,880.52L477.991,880.354L477.199,879.77L476.213,879.367L474.49,879.006L473.35,879.52L472.753,878.408L472.127,877.033L470.877,876.935L470.668,875.157L470.779,873.906L471.321,872.086L471.988,870.724L472.78,870.39L472.614,869.418L473.017,868.695L473.976,868.389L474.476,867.236L474.49,866.555L474.726,865.193L474.684,864.429L475.462,864.693L476.241,864.248L477.019,862.928L476.824,862.219L476.129,861.594L476.241,860.732L475.921,860.065L474.934,859.593L474.087,859.607L473.308,859.69L473.781,861.233L473.767,862.553L473.461,863.734L472.614,862.886L472.489,861.802L471.572,861.024L471.099,862.289L470.752,860.816L469.668,860.705L470.001,859.926L468.959,858.44L468.334,857.898L467.653,857.745L467.194,858.856L467.361,860.441L468.083,860.955L468.82,861.761L468.792,863.262L468.32,863.275L468.097,864.484L467.917,863.109L466.944,862.706L466.444,862.997L466.597,863.915L465.721,863.942L464.79,864.22L463.706,863.595L463.039,863.72L462.455,862.928L461.997,862.581L461.524,862.72L460.816,862.761L460.399,863.248L460.955,863.901L460.232,864.623L459.676,863.692L459.134,863.928L457.495,863.956L456.48,863.512L457.439,862.886L456.814,862.053L456.244,862.08L455.535,861.719L454.396,860.969L453.77,860.218L453.173,859.996L452.826,860.357L452.103,860.427L452.436,859.357L451.38,860.121L451.061,858.648L450.797,858.398L450.394,859.009L449.866,859.204L449.81,858.537L448.851,858.592L447.809,858.912L447.184,858.467L446.364,858.648L445.613,859.009L445.197,858.662L444.877,857.703L444.266,856.966L443.932,856.536L443.584,855.813L442.876,855.688L442.695,855.341L442.042,854.729L441.597,853.812L441.111,853.645L440.764,853.048L441.042,852.812L440.555,852.27L440.18,852.353L440.472,851.672L440.263,851.019L439.152,851.116L438.957,850.783L437.873,850.63L437.456,850.435L436.567,850.56L435.872,850.95L434.941,850.95L434.427,850.352L433.593,850.63L433.552,851.436L433.274,852.186L432.843,852.951L432.745,853.798L432.245,854.729L431.523,853.951L432.19,853.506L431.94,853.187L430.661,852.77L429.73,852.589L429.341,853.673L428.952,854.243L429.105,855.104L429.716,855.577L429.702,856.133L430.078,856.035L430.717,856.244L430.953,856.48L430.216,856.578L430.203,857.008L429.73,857.564L429.077,857.578L428.91,857.175L428.049,857.342L427.993,856.869L427.632,856.591L426.881,856.966L425.923,857.161L425.075,857.564L424.825,858.37L424.144,858.968L424.116,859.551L423.88,860.468L424.616,860.885L424.463,861.58L423.963,861.9L423.324,862.608L423.588,862.914L424.477,862.942L424.074,863.692L424.602,863.414L424.338,864.304L424.992,864.151L424.95,864.498L425.825,864.679L424.95,865.138L424.047,865.957L423.31,866.013L422.991,866.138L421.67,866.138L421.003,866.36L420.295,865.846L419.211,865.888L418.432,865.707L417.432,865.61L417.321,865.888L418.391,866.527L419.141,866.611L419.989,866.763L420.739,866.93L420.989,867.389L422.018,867.486L422.671,867.083L424.019,867.222L424.602,866.805L425.436,866.916L426.423,866.902L427.66,866.43L427.785,865.513L429.258,865.263L430.286,864.721L431.509,864.54L431.398,864.957L430.536,864.929L429.299,865.957L428.785,866.749L429.591,866.944L430.411,866.874L431.259,867.069L431.62,867.208L432.176,866.235L432.982,866.374L433.26,867.375L434.01,868.681L434.913,869.056L435.706,870.126L436.164,870.71L436.748,872.822L437.345,873.6L438.443,874.114L439.096,874.49L438.86,876.018L439.318,877.575L439.013,878.936L439.527,879.659L439.749,880.368L439.471,881.146L440.083,882.563L439.805,883.828L440.708,884.814L440.277,885.718L440.361,887.219L441.848,888.316L442.348,889.164L443.835,891.137L443.96,891.179L444.001,892.527L443.876,893.847L443.529,894.194L443.334,892.61L442.028,891.735L441.82,891.999L441.931,892.791L441.917,894.194L441.611,896.321L440.708,899.086L439.944,900.434L440.027,901.712L439.777,903.06L439.263,904.283L439.694,905.284L439.596,906.576L440.263,908.091L440.68,908.716L440.583,909.077L441.222,911.44L442.181,913.246L442.209,914.122L442.487,914.441L443.64,914.816L444.043,915.317L444.738,915.511L444.835,915.984L445.405,916.261L446.142,917.29L446.28,918.11L446.683,919.569L447.184,920.889L447.601,921.959L448.031,922.973L448.796,923.501L449.782,924.71L449.685,925.391L449.143,925.892L448.573,925.739L448.476,925.85L449.24,926.823L450.074,927.281L450.408,927.712L450.602,927.531L451.547,928.31L452.2,928.838L452.381,929.657L452.298,930.755L453.02,931.186L454.048,931.992L454.979,932.895L455.355,933.812L455.619,933.84L456.23,933.34L456.272,933.076L455.744,932.381L455.174,931.672L454.479,931.575L454.41,930.783L454.034,930.06L453.632,929.38L453.201,927.934L452.339,927.101L452.061,926.531L451.658,926.114L451.422,925.1L451.172,925.1L451.019,924.558L450.811,924.432L450.616,924.043L449.657,922.876L449.24,922.195L449.185,921.028L449.018,920.264L449.282,919.666L450.005,920.18L450.463,920.166L451.394,920.875L451.339,921.459L451.756,922.682L452.436,923.904L452.478,924.391L453.09,925.183L453.868,926.058L454.618,926.225L454.938,927.309L455.758,928.101L456.48,928.49L456.258,929.407L456.508,929.783L457.745,930.449L458.44,931.408L459.913,932.617L461.219,934.104L461.733,934.841L461.886,935.424L462.4,936.091L462.4,936.592L462.08,936.967L462.233,937.384L461.747,937.523L462.122,938.218L462.9,939.121L464.554,939.927L465.207,940.566L466.777,940.969L467.639,941.025L468.042,941.386L469.348,941.997L471.127,942.539L472.28,942.65L473.753,943.178L474.92,943.331L476.032,943.581L476.796,943.359L477.978,942.706L478.811,942.498L480.09,942.678L480.924,943.026L482.786,944.234L483.661,944.651L484.384,944.804L485.343,944.665L486.149,944.749L486.607,944.957L487.455,944.874L488.108,945.013L488.664,945.027L489.539,944.86L489.678,944.512L490.151,944.526L490.456,944.888L490.359,945.013L490.081,944.86L489.942,945.11L490.762,945.541L491.457,945.805L491.832,946.18L492.596,946.541L493.166,946.819L492.86,947.167L493.305,947.236L493.152,947.695L493.194,948.098L493.43,948.306L493.93,948.306L494.306,948.584L494.57,948.195L494.431,947.847L494.848,947.973L495,948.32L495.528,948.348L496.154,948.445L496.599,948.64L496.682,948.904L496.543,949.168L496.876,949.348L497.724,949.404L497.905,949.543L497.919,949.265L498.558,949.07L498.961,949.112L499.586,949.015L499.934,949.418L500.434,949.348L500.601,949.07L500.948,949.737L501.615,949.459L501.81,949.209L502.199,948.917L501.407,948.473L501.518,948.153L501.837,948.014L502.379,947.5L502.615,946.972L503.241,946.68L504.019,946.778L504.339,947.097L504.714,947.055L504.394,947.514L504.797,948.084L505.325,948.264L505.978,948.723L506.34,949.668L506.062,950.099L506.506,951.085L506.312,951.877L506.868,951.961L506.367,952.781L505.825,953.74L505.117,954.073L504.811,954.615L504.922,955.171L504.38,955.449L504.603,955.727L503.63,956.533L502.852,957.033L502.977,957.464L502.463,958.367L502.24,959.145L501.726,959.479L502.032,960.396L501.74,960.785L502.643,960.979L503.185,960.298L503.533,960.66L502.768,961.716L501.615,962.758L501.17,963.62L501.907,964.384L501.434,964.981L502.49,965.051L503.63,965.329L504.075,965.899L504.658,966.135L505.951,967.538L507.243,968.706L508.313,969.401L508.063,969.734L508.549,970.22L509.536,970.304L511.815,970.206L514.274,969.845L514.316,970.109L515.497,969.956L515.47,970.887L515.178,972.041L514.219,973.75L513.218,975.251L512.398,976.488L511.301,977.488L511.023,978.058L510.37,978.627L510.167,979.046C510.525,978.864 510.882,978.679 511.239,978.492L512.049,978.06L512.832,977.632L513.367,977.335ZM526.92,932.673L526.67,932.784L526.017,933.395L526.142,933.868L525.864,934.438L526.114,934.41L527.073,933.632L526.92,932.673ZM504.255,933.09L503.31,933.312L502.991,933.368L502.435,933.673L502.324,934.049L503.213,934.271L504.033,934.215L504.408,933.826L505.353,933.437L505.047,933.145L504.255,933.09ZM513.024,927.462L512.69,927.67L511.843,927.67L510.842,928.129L510.745,928.435L509.564,928.726L508.758,929.004L508.549,929.518L509.425,929.38L509.55,929.908L510.286,930.227L509.883,930.741L508.855,931.061L507.59,931.394L507.576,931.881L508.382,932.006L508.952,931.492L509.786,931.242L510.383,930.88L511.301,930.714L511.453,931.075L511.843,931.13L512.148,929.963L512.523,929.574L512.801,929.81L513.274,929.491L513.441,929.129L513.871,928.99L514.441,928.643L515.122,928.629L515.442,927.851L514.691,927.67L514.122,927.893L514.066,927.476L513.371,927.837L513.024,927.462ZM501.059,928.045L499.822,928.643L499.169,928.296L497.793,928.226L496.71,928.546L495.501,928.796L495.209,929.046L494.181,929.491L493.527,929.963L492.944,930.463L492.735,931.061L492.068,931.7L492.694,931.672L493.361,931.339L493.5,930.936L494.083,930.755L494.945,929.727L496.321,929.393L495.862,929.908L496.404,930.046L498.238,929.713L498.725,929.88L500.072,929.838L500.837,929.518L501.323,930.213L501.879,930.449L502.782,930.227L503.408,930.394L502.671,931.506L504.575,930.644L505.534,930.394L506.409,929.977L507.257,929.435L507.326,929.046L506.201,928.893L505.2,929.213L505.214,928.782L504.352,928.81L503.922,928.99L502.935,928.671L501.601,928.212L501.059,928.045ZM382.861,871.838C368.374,880.975 355.62,890.495 345.021,900C355.622,909.507 368.374,919.026 382.861,928.162C379.994,919.292 378.444,909.826 378.444,900C378.444,890.174 379.994,880.708 382.861,871.838ZM557.281,871.838C560.147,880.708 561.697,890.174 561.697,900C561.697,909.826 560.147,919.292 557.281,928.162C571.768,919.025 584.522,909.505 595.12,900C584.52,890.493 571.768,880.974 557.281,871.838ZM518.652,926.406L517.999,926.642L516.984,927.17L516.873,927.462L517.095,928.004L517.804,927.559L518.721,927.059L518.943,926.545L518.652,926.406ZM500.781,924.016L500.364,924.099L500.295,925.113L500.892,925.363L501.42,926.072L501.726,925.878L501.532,925.044L500.781,924.016ZM500.239,921.584L499.364,921.848L498.78,922.167L499.003,922.682L500.378,921.945L500.239,921.584ZM500.239,921.264L500.281,921.431L501.017,921.792L501.184,922.556L501.462,922.654L501.434,921.542L500.239,921.264ZM397.616,915.414L397.533,915.483L397.519,915.803L397.296,915.872L397.213,915.97L397.241,916.581L397.116,916.915L397.282,917.304L397.477,917.206L397.824,917.276L398.255,917.318L398.297,917.262L398.186,916.595L398.089,916.289L397.964,916.039L397.672,915.497L397.616,915.414ZM397.241,913.83L397.116,913.857L397.102,913.941L397.171,914.149L397.241,914.552L397.56,914.747L397.685,914.65L397.505,914.247L397.241,913.83ZM396.768,913.024L396.643,913.121L397.102,913.607L397.171,913.482L396.768,913.024ZM396.032,911.69L396.046,911.773L396.06,912.176L396.393,912.579L396.463,912.551L396.351,911.884L396.31,911.731L396.032,911.69ZM395.073,909.73L394.99,909.772L395.184,910.3L395.323,910.272L395.406,909.953L395.24,909.73L395.073,909.73ZM376.132,811.35C343.196,810.451 319.386,818.175 312.524,834.742C305.662,851.309 317.036,873.607 340.961,896.26C353.43,885.594 368.383,874.97 385.293,864.884C380.469,845.794 377.408,827.712 376.132,811.35ZM599.18,896.26C623.105,873.607 634.48,851.309 627.617,834.742C620.755,818.175 596.945,810.451 564.01,811.35C562.734,827.709 559.674,845.794 554.849,864.884C571.759,874.971 586.708,885.593 599.18,896.26ZM439.485,887.052L439.291,887.371L439.388,888.316L440.263,888.872L440.305,889.359L441,890.137L441.139,890.762L442.57,891.874L443.112,891.79L442.931,890.831L442.125,889.942L441.848,889.095L441.681,888.469L440.847,888.066L440.347,887.677L439.485,887.052ZM547.405,856.704C543.413,849.593 538.468,843.088 532.745,837.361C533.071,837.71 533.397,838.058 533.729,838.401L533.701,838.485L533.27,838.193L532.562,837.484L532.409,837.429L533.187,838.346L532.687,838.012L532.923,838.512L533.812,839.666L534.174,840.263L534.132,840.458L534.591,841.361L535.355,842.417L535.41,842.751L536.091,844.224L536.828,845.822L537.411,846.878L537.995,847.74L538.454,848.837L539.218,850.116L539.301,850.505L539.315,851.269L539.565,852.186L539.26,852.395L539.371,853.062L540.01,853.84L541.094,855.327L541.58,856.369L542.108,857.703L542.789,858.898L543.276,859.496L544.068,860.635L545.138,861.524L545.888,863.123L546.138,863.873L546.722,865.304L546.819,866.346L547.139,867.25L547.931,868.89L548.195,869.932L548.64,870.918L549.043,871.488L549.446,872.35L549.543,872.864L549.946,874.101L550.404,875.184L550.641,875.476L550.96,876.366L551.099,877.047L551.391,877.588L551.669,878.089L551.989,877.991L552.308,878.214L552.6,878.853L552.906,879.256L553.489,880.187L553.99,881.34L554.226,882.174L554.518,882.661L554.74,883.481L555.032,884.773L555.06,885.468L555.296,885.315L555.699,885.704L555.866,886.343L556.213,886.996L556.31,887.163L556.421,887.066L556.477,887.232L556.616,887.288L556.685,886.899L556.88,886.76L556.963,886.621L557.047,886.704L557.214,887.066L557.297,886.996L557.352,886.857L557.492,886.857L557.7,887.01L557.788,887.264C557.231,883.405 556.426,879.625 555.388,875.942L555.102,874.951L554.82,874.011L554.553,873.158L554.277,872.303C552.668,867.417 550.646,862.717 548.251,858.246L547.915,857.625L547.405,856.704ZM506.02,885.162L505.256,885.69L504.533,885.885L503.852,885.384L503.769,886.01L504.241,886.357L505.659,886.274L505.923,885.996L506.02,885.162ZM437.234,880.52L436.984,880.965L436.873,881.674L437.095,882.299L437.137,883.091L437.387,883.967L437.734,884.092L437.456,882.619L438.36,881.035L437.526,880.854L437.234,880.52ZM506.479,874.781L506.117,874.976L505.853,875.879L505.937,876.949L506.631,879.589L506.52,880.84L507.09,880.979L506.909,881.785L507.285,882.091L508.813,881.049L509.564,880.354L510.495,880.118L510.397,881.146L510.87,880.84L510.925,879.034L511.245,879.034L511.843,880.215L512.496,880.062L512.787,879.729L512.246,878.353L511.44,877.755L510.856,877.158L510.522,877.783L510.05,876.671L509.063,876.852L508.966,877.422L508.091,877.575L508.007,876.935L507.34,877.019L507.187,877.825L506.84,876.324L506.604,875.226L506.479,874.781ZM502.671,881.118L501.42,881.424L501.198,881.702L502.338,881.896L503.63,881.688L504.005,881.41L503.838,881.174L502.671,881.118ZM479.02,868.987L478.075,869.251L477.783,870.071L478.075,870.418L478.575,870.321L479.103,869.279L479.02,868.987ZM480.937,869.265L480.646,869.32L480.548,869.834L480.548,869.946L480.91,870.321L481.271,870.335L481.229,869.501L480.937,869.265ZM474.99,865.624L475.17,867L475.435,868.167L475.045,869.028L475.935,868.667L476.435,869.473L477.172,868.459L477.561,867.514L478.172,868.056L479.339,868.083L479.742,867.444L479.089,867.125L478.659,867.389L478.339,866.722L477.436,866.499L476.56,866.194L476.06,865.916L475.81,866.221L475.476,865.624L474.99,865.624ZM426.339,867.514L425.492,867.542L425.103,868.181L425.117,868.737L426.048,868.737L427.006,868.528L427.076,867.945L426.784,867.569L426.339,867.514ZM472.85,854.034L471.974,854.882L471.947,856.077L471.307,855.313L471.335,854.354L470.335,854.979L470.029,855.633L469.987,856.939L470.501,858.314L471.21,858.176L470.863,858.926L471.419,859.329L472.322,859.357L473.573,859.496L475.574,859.273L476.435,858.801L476.518,858.314L477.13,858.634L477.602,858.551L478.561,859.176L478.408,859.635L479.701,859.69L480.854,859.996L481.313,860.357L481.799,860.871L481.813,862.483L481.98,863.234L482.424,863.637L481.299,864.304L480.173,864.748L480.229,865.916L480.979,866.207L482.674,865.304L482.466,864.901L483.689,865.207L484.995,865.499L484.995,865.971L486.121,866.291L487.913,866.43L489.914,866.069L489.511,865.666L488.358,865.221L486.802,864.512L488.956,864.79L489.942,864.721L489.484,863.678L488.219,862.636L487.76,862.414L486.607,862.233L485.523,861.789L485.106,861.024L485.676,860.496L487.371,861.261L488.414,861.413L488.191,859.426L487.663,858.481L486.829,858.87L485.273,858.162L484.3,858.314L482.591,858.092L483.05,857.064L481.785,856.133L481.049,855.841L479.645,855.869L478.672,855.271L478.019,855.91L477.644,855.382L476.685,855.007L475.379,854.715L475.226,855.382L474.504,856.063L474.184,855.174L472.85,854.034ZM458.203,855.785L456.772,856.452L456.299,856.966L455.591,857.939L456.341,858.454L457.119,858.551L455.813,858.94L455.938,859.51L456.661,859.648L457.8,859.676L458.759,860.121L458.023,860.302L457.286,860.149L456.411,860.274L456.022,860.385L456.425,861.622L456.953,861.524L457.634,862.011L457.814,862.72L458.606,862.692L460.357,862.553L461.469,862.094L462.136,862.025L463.109,862.414L464.151,862.622L464.331,862.08L463.97,861.524L464.887,861.372L464.915,860.732L463.915,860.079L463.025,859.385L462.886,858.37L462.622,856.98L462.136,856.397L461.691,856.161L461.261,856.355L461.469,857.828L461.177,858.412L460.913,856.994L460.538,856.508L459.899,857.189L459.357,856.425L458.245,856.744L458.606,856.105L458.203,855.785ZM466.402,860.455L466.082,861.108L465.624,861.594L466.444,862.192L466.902,861.997L467.722,862.358L468.014,861.802L467.597,861.288L467.389,861.038L467.027,860.816L466.402,860.455ZM479.339,860.26L478.936,860.635L479.075,861.469L479.548,862.094L480.132,861.789L480.284,861.247L480.257,861.038L479.937,860.468L479.339,860.26ZM477.741,834.886L477.06,834.927L476.727,835.386L477.241,836.261L477.728,836.817L476.852,836.442L476.255,836.47L476.657,836.873L475.949,837.22L475.893,837.804L475.587,837.79L475.768,836.942L475.879,836.359L475.324,835.983L473.85,836.581L473.211,837.498L473.086,837.97L473.503,838.346L473.114,838.735L473.573,839.555L474.114,839.888L475.129,839.958L474.448,840.013L474.156,840.138L473.378,840.152L473.684,840.93L473.156,840.805L472.711,841.167L472.391,841.667L472.266,842.181L472.808,842.584L472.641,842.862L472.614,843.988L472.794,844.516L473.739,844.571L474.003,845.002L473.531,846.016L472.919,847.031L473.183,847.503L474.17,847.698L475.629,847.364L475.101,847.726L474.587,848.476L475.657,848.948L476.31,849.143L477.005,848.643L477.769,848.129L478.464,847.823L479.867,847.906L480.326,848.337L481.132,848.462L482.688,849.282L483.731,849.796L484.356,850.032L485.051,851.297L485.62,851.339L485.787,850.908L486.496,851.005L487.83,851.144L486.816,851.478L486.51,851.769L486.982,852.436L487.774,853.145L488.608,853.117L488.775,852.673L488.789,852.353L488.775,851.63L489.636,852.492L489.984,853.048L489.859,853.937L490.818,855.535L491.485,855.688L492.179,856.619L493.819,857.133L494.903,858.064L495.876,858.579L498.099,859.232L499.531,860.01L500.614,860.163L501.504,859.232L503.116,859.385L503.63,858.62L502.629,857.369L501.768,856.327L500.642,855.744L500.197,854.215L499.517,853.367L498.613,852.714L498.058,851.783L498.183,850.963L498.21,850.171L498.349,849.838L497.905,848.351L496.737,846.961L496.39,846.253L496.599,845.808L496.599,844.377L495.806,842.806L494.792,841.278L494.57,841.778L494.195,842.751L493.555,842.014L492.499,841.764L493.5,841.625L494.153,841.542L494.028,840.777L492.777,840.527L491.735,840.68L491.221,841.014L490.873,840.694L491.679,840.236L490.998,840.027L489.859,840.111L489.97,839.666L489.831,839.138L489.303,838.888L488.594,839.068L488.622,838.36L487.219,838.415L487.135,838.068L485.801,837.818L484.87,838.109L484.467,837.567L484.467,837.164L483.397,837.248L481.646,836.9L480.646,836.539L479.534,836.108L479.381,836.539L479.2,835.886L478.839,835.733L477.741,834.886ZM423.06,858.231L422.935,858.815L422.935,859.329L423.352,859.482L423.769,859.023L423.602,858.551L423.06,858.231ZM464.943,855.257L464.443,855.966L464.999,856.869L464.026,856.73L464.012,857.189L465.29,858.231L465.666,858.759L466.18,858.842L466.944,858.203L466.875,856.925L466.082,856.383L466.444,855.674L466.277,855.271L465.499,855.521L464.943,855.257ZM454.493,853.659L454.563,854.576L453.826,855.382L453.006,856.411L452.673,856.814L453.465,857.814L453.492,858.481L455.007,858.064L455.202,857.481L456.077,856.605L457.467,855.813L458.12,855.549L457.786,854.896L457.481,854.437L456.439,854.173L455.938,853.771L454.493,853.659ZM428.334,818.424C411.623,814.638 395.867,812.35 381.647,811.577C382.421,825.799 384.708,841.553 388.494,858.263C397.263,841.175 411.243,827.194 428.334,818.424ZM551.647,858.263C555.433,841.552 557.721,825.796 558.494,811.577C544.271,812.35 528.518,814.638 511.808,818.424C528.896,827.192 542.876,841.172 551.647,858.263ZM468.389,854.521L467.472,854.604L467.097,855.049L466.944,855.66L467.041,856.355L467.514,857.564L468.083,857.55L468.403,856.425L468.903,856.063L469.293,854.715L468.389,854.521ZM462.747,855.619L462.136,855.66L461.969,855.855L462.65,856.855L463.081,855.924L462.747,855.619ZM474.684,853.59L473.67,853.771L473.503,853.909L473.698,854.396L474.49,854.938L474.656,854.979L475.045,854.632L475.518,854.507L475.99,854.368L475.768,854.034L474.684,853.59ZM494.128,814.683C486.476,812.526 478.407,811.373 470.071,811.373C461.723,811.373 453.644,812.53 445.984,814.691L445.245,814.903C433.185,818.42 422.183,824.435 412.838,832.351L413.444,832.176L414.18,832.329L415.125,832.037L416.96,830.828L417.515,830.147L417.265,829.897L417.96,829.258L418.863,828.827L419.767,827.896L420.614,829.591L421.67,830.981L420.948,832.69L419.864,834.441L420.17,834.969L419.614,835.886L418.697,836.094L418.488,836.942L418.405,838.123L419.35,837.415L421.17,838.123L421.309,839.374L419.558,840.374L420.837,841.236L421.934,841.153L422.004,841.736L420.1,842.042L419.127,841.458L417.904,840.986L416.473,840.569L416.404,839.735L415.806,839.93L415.181,839.694L413.527,840.055L410.692,841.57L408.872,842.667L407.983,843.321L408.844,843.779L410.025,843.39L410.122,844.265L411.484,843.821L411.957,844.668L412.527,844.14L413.555,843.918L413.541,844.488L415.417,843.71L415.792,842.89L416.32,842.653L417.515,842.82L418.377,842.653L418.141,843.487L418.683,843.793L418.182,844.265L419.252,845.266L418.349,846.503L418.988,846.419L419.892,846.808L420.962,847.156L421.198,847.545L422.546,848.462L422.504,849.574L422.907,849.504L423.449,849.129L423.741,848.698L424.797,847.795L425.422,846.975L425.492,847.642L426.27,847.92L426.965,847.865L427.548,847.309L428.062,847.67L427.507,847.851L427.104,848.365L427.479,848.768L427.437,849.351L426.895,849.81L426.77,850.658L426.464,851.311L426.645,851.755L427.006,851.755L428.313,850.922L428.841,851.533L429.661,851.561L430.453,849.935L430.091,848.684L429.146,849.379L429.355,848.893L430.216,848.42L431.161,846.586L431.898,845.071L432.356,844.238L432.787,842.82L432.551,842.056L432.829,840.68L432.148,840.722L431.245,841.361L430.731,841.028L432.023,839.902L431.87,839.193L432.204,838.373L432.231,837.679L432.009,837.22L432.509,836.636L433.579,836.47L434.246,836.053L434.663,835.275L434.844,833.829L436.303,832.815L437.276,832.482L439.833,829.605L439.555,829.146L438.151,829.272L438.735,828.757L438.554,828.479L439.457,827.91L439.582,827.326L440.597,826.937L439.61,826.409L440.583,826.02L441.903,825.867L442.209,826.159L443.098,826.228L444.182,825.978L444.655,825.575L445.502,825.13L444.696,824.811L446.267,823.88L446.808,824.033L448.087,823.421L448.518,823.018L448.448,822.782L449.199,823.032L449.365,822.754L450.116,822.615L450.685,822.476L450.658,822.782L450.199,823.574L450.102,823.949L450.491,824.283L451.075,824.366L452.2,824.297L453.117,823.88L453.229,823.588L453.687,823.88L454.521,823.685L454.271,824.033L455.021,824.06L455.494,823.477L455.535,823.06L455.368,822.713L456.022,822.518L456.55,821.879L456.953,821.962L457.884,821.656L457.898,821.42L458.857,821.1L459.482,820.572L459.94,820.475L460.26,819.892L459.801,819.544L460.733,819.322L461.802,819.238L462.567,819.016L462.455,818.224L461.955,817.654L462.9,818.002L463.915,817.918L464.748,817.599L464.554,817.085L465.096,817.21L464.832,817.918L465.04,818.321L465.276,818.307L465.235,817.779L466.207,817.307L465.624,816.723L466.18,816.042L466.11,815.667L465.485,815.612L465.832,815.181L465.527,814.819L466.11,814.528L466.333,814.236L467.055,814.097L467.375,813.888L468.083,814L466.638,814.819L466.291,815.236L466.847,815.653L466.513,816.57L466.583,817.057L466.847,817.293L466.249,817.863L466.263,818.28L467.458,818.544L467.847,818.419L468.389,817.765L469.57,817.21L469.654,816.987L469.598,816.431L469.918,816.14L469.279,816.001L469.32,815.862L468.876,815.486L469.39,815.181L471.113,816.112L471.766,816.418L473.225,816.876L473.656,816.723L473.35,816.251L474.281,815.959L474.629,816.445L475.657,816.376L476.699,816.612L477.297,816.515L477.908,816.765L477.005,816.96L477.38,817.098L479.812,817.196L481.271,817.335L481.882,817.071L482.897,817.279L483.036,817.613L482.591,817.877L481.841,817.682L481.688,818.071L482.813,818.822L482.98,818.363L483.731,818.182L483.8,817.724L484.675,817.557L484.884,817.932L485.315,818.182L487.427,818.391L487.733,817.932L488.414,818.085L489.095,818.988L489.789,819.058L489.901,818.724L490.429,818.613L490.595,818.933L490.957,819.433L489.525,819.933L489.525,820.67L489.053,820.489L487.663,818.947L486.579,818.613L485.537,818.544L484.967,818.849L484.912,819.252L485.537,820.67L486.454,821.476L486.454,822.157L487.232,822.296L486.941,822.838L486.176,822.587L486.44,823.699L487.274,824.116L487.816,824.644L489.317,824.839L489.761,825.367L490.971,825.95L493.416,826.659L494.889,827.187L498.169,828.007L500.559,828.813L502.49,829.772L504.297,831.148L505.395,831.703L508.466,832.023L509.814,832.079L510.119,831.439L509.411,830.647L507.298,829.383L507.868,829.132L509.425,828.952L510.536,828.702L511.578,828.702L511.064,828.035L509.869,827.59L509.48,826.937L508.104,826.52L505.895,826.159L505.186,825.631L503.421,825.158L503.13,825.589L502.532,825.909L500.489,825.603L498.683,824.825L497.071,824.269L496.376,824.408L495.153,824.144L494.153,823.56L494.167,822.976L494.625,822.851L495.153,823.06L497.377,823.769L498.502,824.06L499.406,824.213L500.295,823.949L501.573,823.991L501.532,823.546L501.907,823.268L500.892,822.56L499.614,821.837L498.613,821.1L498.572,820.614L499.767,821.017L500.35,821.462L500.712,821.934L501.504,822.476L502.435,823.032L503.06,822.99L503.144,822.685L502.81,822.518L503.533,822.56L504.491,822.657L504.936,823.046L504.477,823.407L505.339,823.88L506.298,824.158L507.173,824.213L508.021,824.185L509.091,824.936L509.703,825.117L510.161,825.645L509.911,825.645L510.189,826.173L511.162,826.923L512.398,827.91L513.038,828.368L512.857,828.577L512.843,829.146L513.385,829.535L514.01,830.189L513.566,830.091L513.649,830.633L513.177,830.55L512.662,830.578L511.495,829.994L511.537,829.855L510.967,829.633L510.967,829.897L510.647,829.911L510.133,829.675L509.466,829.563L510.092,830.063L510.564,830.314L510.925,830.828L511.398,831.05L511.801,831.217L513.107,831.467L513.677,831.384L514.372,831.509L514.761,831.481L515.608,832.037L515.4,832.092L515.733,832.62L516.067,832.815L516.289,833.329L517.22,834.344L519.305,835.497L519.791,835.956L520.25,836.581L520.736,837.262L521.82,837.859L523.321,839.888L522.973,840.347L524.307,840.722L524.307,841.806L524.78,842.89L525.655,843.237L525.878,842.334L526.336,842.07L527.378,841.903L529.727,843.251L530.519,844.043L530.797,845.322L531.005,846.03L530.978,846.781L531.158,847.865L531.075,848.74L532.02,850.422L532.478,850.408L533.284,850.991L533.659,851.2L534.035,851.311L534.507,851.617L535.174,852.27L535.605,852.645L536.022,853.284L536.731,853.868L537.106,853.965L537.161,853.645L537.801,854.062L538.607,854.84L538.454,854.285L538.537,853.923L538.231,853.354L538.273,852.645L538.815,852.853L539.093,852.784L539.093,852.409L538.662,851.755L538.204,850.922L538.037,850.088L537.745,848.948L536.8,847.753L536.411,846.947L535.688,846.308L535.077,845.488L534.591,845.433L533.632,844.557L532.881,843.682L532.492,843.39L531.895,842.195L530.88,841.028L530.269,840.722L529.574,840.277L528.74,838.957L528.323,837.581L527.351,836.581L527.1,836.233L526.364,835.566L526.031,835.163L526.044,834.719L525.947,834.399L526.85,834.649L527.142,834.427L527.365,834.066L527.42,833.69L527.087,833.176L527.253,833.037L527.087,832.648L527.337,832.648L527.226,832.398L527.309,832.398C527.683,832.715 528.064,833.024 528.444,833.333C523.818,829.279 518.767,825.697 513.367,822.665L513.367,822.665C512.618,822.245 511.862,821.835 511.1,821.436L510.203,820.972L509.633,820.685L508.741,820.245L508.161,819.965L507.269,819.546L506.764,819.313L506.119,819.023L505.128,818.588L504.57,818.349L504.075,818.141L503.542,817.921L503.02,817.71L502.485,817.497L501.568,817.142L500.649,816.798L499.726,816.464L498.799,816.141L497.871,815.828L496.939,815.526L496.006,815.235L495.071,814.954L494.128,814.683ZM426.312,852.742L425.811,853.048L425.756,853.242L426.061,853.604L425.936,853.951L425.867,854.507L426.353,854.66L426.52,854.59L426.409,854.007L426.52,853.395L426.228,853.201L426.312,852.742ZM461.344,851.186L460.941,851.672L461.316,853.02L460.635,852.867L460.079,852.006L459.134,851.422L458.69,851.755L457.814,853.006L458.301,853.326L460.163,853.367L459.19,853.896L459.162,854.354L459.801,854.382L460.955,853.868L462.386,853.701L462.664,853.048L462.636,852.367L462.233,852.297L461.858,852.52L461.761,852.02L461.705,851.366L461.344,851.186ZM466.972,852.548L466.458,852.992L466.333,853.631L466.888,853.937L467.514,853.965L467.639,853.395L467.403,852.978L466.972,852.548ZM465.971,850.574L465.902,851.144L466.388,851.519L467.18,851.589L467.68,852.131L467.875,852.784L468.167,853.52L469.376,853.757L470.098,853.784L470.946,853.576L472.03,853.062L472.614,853.076L473.086,852.617L473.17,852.186L472.822,851.686L472.197,851.325L471.558,851.422L470.849,851.742L470.349,852.172L469.737,852.186L469.209,852.242L468.876,851.964L468.361,851.742L468.32,851.227L467.903,850.838L467.18,850.963L466.708,850.574L465.971,850.574ZM465.402,851.241L465.388,851.422L464.86,851.38L464.318,851.881L463.915,851.853L463.956,852.909L464.596,852.77L464.623,853.576L465.082,853.784L465.763,853.59L465.832,852.548L465.749,851.839L465.402,851.241ZM459.259,849.824L458.745,849.949L458.231,849.838L457.244,850.56L456.272,851.422L456.661,851.825L457.328,851.742L458.175,851.283L458.537,851.269L458.94,850.838L459.259,849.824ZM470.946,841.167L470.487,841.236L470.001,841.389L469.181,841.584L468.834,841.973L468.667,841.889L468.153,842.125L467.903,842.348L467.75,842.612L467.903,843.293L467.542,843.015L467.278,843.015L467.139,843.543L466.805,843.835L466.555,843.918L466.305,844.224L466.458,844.641L466.833,844.96L467.18,845.433L467.75,845.766L468.611,845.461L469.237,845.447L469.028,846.016L468.778,845.933L468.042,846.058L468.389,846.683L468.959,847.072L469.042,847.531L468.625,847.962L468.542,848.518L469.14,848.643L469.876,849.365L468.806,849.018L468.639,849.143L469.098,850.06L468.542,850.491L468.764,851.116L469.473,851.033L470.071,851.075L471.043,850.588L472.127,850.672L472.669,849.602L472.503,849.31L471.961,849.546L471.78,849.282L472.03,848.754L471.919,848.226L472.183,847.712L472.211,847.184L471.627,846.683L471.683,846.405L471.224,846.392L471.947,845.961L471.947,845.655L472.322,845.238L472.016,844.14L472.113,843.654L472.016,842.765L471.599,842.987L471.572,842.667L471.808,842.209L471.78,841.528L471.516,841.264L470.946,841.167ZM461.024,849.324L460.524,849.421L460.177,849.81L460.593,850.296L461.288,849.963L461.455,849.56L461.024,849.324ZM466.624,849.602L465.957,849.671L466.096,850.032L466.749,850.032L466.902,849.977L466.916,849.824L466.624,849.602ZM465.082,848.351L465.165,848.907L465.346,849.393L465.652,849.671L466.11,849.351L466.124,848.851L465.679,848.434L465.485,848.365L465.082,848.351ZM462.997,847.865L462.997,848.365L463.359,848.684L463.039,849.087L463.748,849.129L464.304,849.546L464.86,849.671L464.693,849.115L464.415,848.49L463.581,848.031L462.997,847.865ZM461.108,848.379L460.719,848.754L460.677,848.948L461.205,848.99L461.636,848.754L461.261,848.462L461.108,848.379ZM466.305,845.057L465.749,845.196L465.916,845.474L465.679,845.599L465.554,846.016L465.457,846.614L465.707,847.184L466.096,847.573L466.638,847.489L466.472,847.878L466.555,848.351L467,848.837L467.708,848.893L468.236,848.698L468.5,847.601L468.764,847.128L468.278,846.808L467.778,846.016L467.278,845.864L466.777,845.683L466.305,845.057ZM500.781,839.749L500.628,840.472L501.337,841.472L500.837,841.903L501.518,842.904L500.364,843.223L500.406,844.001L501.268,844.71L501.865,843.876L502.296,844.029L502.365,845.002L503.338,844.252L503.866,845.002L504.631,843.807L504.95,843.237L504.742,842.695L503.88,840.902L502.768,839.916L501.74,840.138L500.781,839.749ZM517.373,840.43L516.651,840.805L516.776,841.361L517.471,842.098L518.596,843.446L519.902,843.682L521.32,844.863L521.431,843.974L520.514,842.403L519.263,841.403L518.346,841.125L517.373,840.43ZM434.844,843.195L434.399,843.46L434.594,843.821L434.844,844.252L435.316,844.46L435.525,844.391L435.761,843.696L435.664,843.404L435.594,843.39L434.844,843.195ZM518.457,836.456L518.485,837.164L518.04,837.178L516.678,837.095L516.609,837.47L515.067,837.526L515.136,838.137L513.788,837.22L512.635,836.734L512.801,837.387L513.121,838.054L511.495,836.984L511.759,837.72L511.745,838.151L512.954,838.957L514.413,839.652L515.053,839.583L516.345,839.999L515.65,839.43L515.984,839.36L516.623,839.805L516.956,839.777L517.026,839.082L517.762,838.929L518.54,839.305L518.638,840.249L519.527,840.708L520.153,840.625L520.694,841.5L521.167,841.514L521.153,840.514L521.57,841.264L523.098,842.89L523.279,842.626L522.695,841.903L522.709,841.306L522.001,840.583L522.167,840.361L521.5,839.027L521.222,838.109L520.347,837.248L519.791,837.276L519.305,836.803L518.457,836.456ZM529.685,836.456L529.227,836.539L529.769,837.095L529.963,837.498L530.449,837.637L531.645,838.304L531.742,838.151L531.214,837.637L531.075,837.304L529.685,836.456ZM527.267,835.455L527.962,836.136L528.435,836.497L529.032,836.678L529.046,836.428L528.101,835.761L527.267,835.455ZM530.195,834.91L530.63,835.594L531.186,835.997L531.096,835.753C530.797,835.469 530.496,835.188 530.195,834.91ZM442.028,831.453L441.194,831.953L440.847,832.412L441.292,832.732L441.987,832.037L442.459,831.537L442.028,831.453ZM524.696,832.134L524.71,832.134L524.655,832.537L524.696,832.134ZM522.626,831.217L523.001,831.37L523.196,831.3L523.21,831.314L523.001,831.384L522.626,831.231L522.626,831.217ZM525.28,830.703L525.336,830.842L525.502,831.328L525.489,831.328L525.322,830.856L525.28,830.703ZM443.779,829.035L442.515,829.424L442.515,829.911L441.82,830.925L442.737,831.203L444.057,830.328L444.585,829.688L444.585,829.327L443.779,829.035ZM522.39,830.995L522.584,831.189L522.404,831.036L522.39,830.995ZM522.973,830.508L522.779,830.661L522.431,830.536L522.779,830.647L522.973,830.508ZM478.422,828.382L477.95,829.272L477.644,829.633L477.894,829.869L478.422,829.8L478.631,830.05L478.2,830.272L479.034,830.647L480.09,830.272L481.035,829.647L481.229,829.244L481.868,829.327L482.369,828.674L482.105,828.424L480.882,828.604L480.465,828.493L479.381,828.674L478.422,828.382ZM440.666,829.48L440.555,829.522L439.986,830.133L439.708,830.592L440.083,830.578L440.875,830.189L441,829.813L440.666,829.48ZM476.935,827.937L476.004,828.007L475.907,828.479L475.977,828.98L476.532,828.98L476.421,829.313L477.227,829.675L477.7,829.313L477.519,829.063L477.853,828.91L477.588,828.34L476.935,827.937ZM479.256,827.312L479.256,827.673L478.839,827.924L479.478,828.215L479.798,827.965L480.27,827.993L480.229,827.548L479.256,827.312ZM462.9,824.422L461.844,825.005L461.149,825.728L460.441,826.784L460.746,827.771L461.427,828.007L462.817,828.132L463.526,827.298L463.72,825.895L462.9,824.422ZM471.78,825.575L471.363,825.617L471.21,825.728L470.529,825.728L470.321,825.825L470.501,826.117L470.849,826.061L471.155,825.909L471.002,826.145L471.349,826.27L471.933,826.298L471.46,826.061L471.835,825.867L471.78,825.575ZM457.647,824.185L457.078,824.477L457.55,825.228L458.676,825.853L459.398,826.159L459.801,825.825L460.177,825.075L459.746,824.978L459.246,824.408L458.606,824.199L457.647,824.185ZM456.675,823.685L455.23,824.589L455.438,824.922L456.536,825.075L456.772,825.047L456.925,824.88L456.675,823.685ZM474.337,817.751L474.795,818.516L474.392,819.086L473.156,819.586L472.002,820.156L470.293,820.642L468.917,820.85L467.417,821.114L467.083,821.351L467.236,821.698L467.972,821.656L468.723,821.434L470.015,821.462L471.558,821.198L472.697,820.989L472.864,820.628L474.365,820.253L474.059,820.072L475.449,819.725L475.796,819.35L476.407,819.35L476.713,818.988L476.046,818.571L476.199,818.252L474.67,817.765L474.337,817.751ZM466.331,770.89C443.677,746.966 421.379,735.591 404.813,742.453C388.246,749.315 380.522,773.125 381.421,806.061C397.78,807.336 415.865,810.397 434.955,815.222C445.042,798.312 455.664,783.362 466.331,770.89ZM558.72,806.061C559.619,773.125 551.895,749.315 535.329,742.453C518.762,735.591 496.464,746.966 473.811,770.89C484.477,783.36 495.101,798.312 505.187,815.222C524.277,810.398 542.359,807.338 558.72,806.061ZM498.232,812.79C489.096,798.303 479.575,785.549 470.071,774.95C460.564,785.551 451.045,798.303 441.909,812.79C450.778,809.923 460.245,808.373 470.071,808.373C479.896,808.373 489.363,809.923 498.232,812.79Z" style="fill:white;"/>
    </g>
</svg>
