<svg width="20" height="20" viewBox="0 0 20 20" fill="none" xmlns="http://www.w3.org/2000/svg">
<path d="M4.49998 9.00001C6.98525 9.00001 8.99996 6.98529 8.99996 4.5C8.99996 2.01472 6.98525 0 4.49998 0C2.01471 0 0 2.01472 0 4.5C0 6.98529 2.01471 9.00001 4.49998 9.00001Z" fill="#101010"/>
<path d="M4.49998 20C6.98525 20 8.99996 17.9853 8.99996 15.5C8.99996 13.0147 6.98525 11 4.49998 11C2.01471 11 0 13.0147 0 15.5C0 17.9853 2.01471 20 4.49998 20Z" fill="#CA1AE6"/>
<path d="M15.5 20C17.9853 20 20 17.9853 20 15.5C20 13.0147 17.9853 11 15.5 11C13.0148 11 11.0001 13.0147 11.0001 15.5C11.0001 17.9853 13.0148 20 15.5 20Z" fill="#607D9F"/>
<path d="M15.5 9.00001C17.9853 9.00001 20 6.98529 20 4.5C20 2.01472 17.9853 0 15.5 0C13.0148 0 11.0001 2.01472 11.0001 4.5C11.0001 6.98529 13.0148 9.00001 15.5 9.00001Z" fill="#E6421A"/>
</svg>
